<?xml version="1.0"?>
<svg xmlns:rdf="http://www.w3.org/1999/02/22-rdf-syntax-ns#" xmlns="http://www.w3.org/2000/svg" xmlns:cc="http://web.resource.org/cc/" xmlns:xlink="http://www.w3.org/1999/xlink" xmlns:dc="http://purl.org/dc/elements/1.1/" xmlns:svg="http://www.w3.org/2000/svg" id="svg4724" viewBox="0 0 744.09 500" version="1.0">
  <defs id="defs4726">
    <radialGradient id="radialGradient3267" gradientUnits="userSpaceOnUse" cy="372.74" cx="221.01" gradientTransform="matrix(1 0 0 .72807 0 101.36)" r="51.63">
      <stop id="stop3238" stop-color="#faa" offset="0"/>
      <stop id="stop3240" stop-color="#faa" stop-opacity="0" offset="1"/>
    </radialGradient>
  </defs>
  <g id="layer1">
    <path id="path4413" d="m580 206.65a74.286 62.857 0 1 1 -148.57 0 74.286 62.857 0 1 1 148.57 0z" transform="matrix(1.1965 0 0 1.3868 -10.259 -195.22)"/>
    <path id="path4415" d="m580 206.65a74.286 62.857 0 1 1 -148.57 0 74.286 62.857 0 1 1 148.57 0z" transform="matrix(1.1965 0 0 1.3868 -454.67 -183.26)"/>
    <g id="g3287">
      <path id="path4419" d="m600 400.93a232.86 191.43 0 1 1 -465.71 0 232.86 191.43 0 1 1 465.71 0z" fill="none" transform="matrix(1.1965 0 0 1.1965 -68.374 -217.42)"/>
      <path id="path4417" d="m657.14 413.79a270 204.29 0 1 1 -540 0 270 204.29 0 1 1 540 0z" transform="matrix(1.1014 0 0 1.0846 -43.507 -190.5)" stroke="#000" stroke-width="8.8" fill="#f9f9f9"/>
      <path id="path4421" d="m340 358.08a60 31.429 0 1 1 -120 0 60 31.429 0 1 1 120 0z" stroke="#000" stroke-width="8.8" transform="matrix(.84096 -.85110 .85110 .84096 -300.93 144.78)"/>
      <path id="path4427" d="m-228.57 352.36a30 20 0 1 1 -60 0 30 20 0 1 1 60 0z" transform="matrix(1.1965 0 0 1.1965 683.71 -144.35)"/>
      <path id="path4423" d="m340 358.08a60 31.429 0 1 1 -120 0 60 31.429 0 1 1 120 0z" stroke="#000" stroke-width="8.8" transform="matrix(.81875 .87249 -.87249 .81875 589.11 -326.46)"/>
      <path id="path4425" d="m211.43 682.36a14.286 12.857 0 1 1 -28.57 0 14.286 12.857 0 1 1 28.57 0z" fill="#ececec" transform="matrix(1.4358 0 0 1.4624 -16.412 -805.66)"/>
      <path id="path4437" d="m211.43 682.36a14.286 12.857 0 1 1 -28.57 0 14.286 12.857 0 1 1 28.57 0z" fill="#ececec" transform="matrix(1.4358 0 0 1.4624 192.12 -803.95)"/>
      <path id="path4439" d="m194.29 792.36a10 8.5714 0 1 1 -20 0 10 8.5714 0 1 1 20 0z" transform="matrix(1.3674 0 0 1.7947 13.609 -1230.7)"/>
      <path id="path4441" d="m194.29 792.36a10 8.5714 0 1 1 -20 0 10 8.5714 0 1 1 20 0z" transform="matrix(1.3674 0 0 1.7947 222.14 -1227.3)"/>
      <path id="path3186" d="m300.37 322.79l83.4 64.22 72.2-69.77" stroke="#000" stroke-width="13.732" fill="none"/>
      <path id="path3234" d="m272.64 372.74a51.63 37.591 0 1 1 -103.26 0 51.63 37.591 0 1 1 103.26 0z" fill="url(#radialGradient3267)" transform="matrix(2.3509 0 0 2.6988 -286.79 -655.39)"/>
      <path id="path3244" d="m272.64 372.74a51.63 37.591 0 1 1 -103.26 0 51.63 37.591 0 1 1 103.26 0z" fill="url(#radialGradient3267)" transform="matrix(2.3518 0 0 2.6988 -25.177 -654.49)"/>
    </g>
  </g>
  <metadata>
    <rdf:RDF>
      <cc:Work>
        <dc:format>image/svg+xml</dc:format>
        <dc:type rdf:resource="http://purl.org/dc/dcmitype/StillImage"/>
        <cc:license rdf:resource="http://creativecommons.org/licenses/publicdomain/"/>
        <dc:publisher>
          <cc:Agent rdf:about="http://openclipart.org/">
            <dc:title>Openclipart</dc:title>
          </cc:Agent>
        </dc:publisher>
        <dc:title>Panda in love, bujung, Tonrak</dc:title>
        <dc:date>2010-06-06T12:42:44</dc:date>
        <dc:description>Panda in love</dc:description>
        <dc:source>http://openclipart.org/detail/64651/panda-in-love-bujung-tonrak-by-aungkarns</dc:source>
        <dc:creator>
          <cc:Agent>
            <dc:title>aungkarns</dc:title>
          </cc:Agent>
        </dc:creator>
        <dc:subject>
          <rdf:Bag>
            <rdf:li>Cartoon</rdf:li>
            <rdf:li>Panda in love</rdf:li>
            <rdf:li>Tonrak</rdf:li>
            <rdf:li>bujung</rdf:li>
            <rdf:li>clip art</rdf:li>
            <rdf:li>clipart</rdf:li>
          </rdf:Bag>
        </dc:subject>
      </cc:Work>
      <cc:License rdf:about="http://creativecommons.org/licenses/publicdomain/">
        <cc:permits rdf:resource="http://creativecommons.org/ns#Reproduction"/>
        <cc:permits rdf:resource="http://creativecommons.org/ns#Distribution"/>
        <cc:permits rdf:resource="http://creativecommons.org/ns#DerivativeWorks"/>
      </cc:License>
    </rdf:RDF>
  </metadata>
</svg>
